<svg xmlns="http://www.w3.org/2000/svg" width="820" height="310" viewBox="0 0 820 310">
<rect width="100%" height="100%" fill="#ffffff"/>
<text x="24" y="34" font-family="Arial, sans-serif" font-size="20" font-weight="700" fill="#1a202c">ABCDs Detector CSV Summary by Category</text>
<text x="24" y="56" font-family="Arial, sans-serif" font-size="13" fill="#4a5568">Long-form: 23 features. Shorts: 20 features.</text>
<text x="24" y="74" font-family="Arial, sans-serif" font-size="15" font-weight="700" fill="#2d3748">Long-form ABCD</text>
<text x="44" y="107" font-family="Arial, sans-serif" font-size="12" fill="#2d3748">Detected true</text>
<rect x="180" y="92" width="240" height="18" rx="3" fill="#2f855a"/>
<text x="430" y="106" font-family="Arial, sans-serif" font-size="12" fill="#2d3748">8</text>
<text x="44" y="135" font-family="Arial, sans-serif" font-size="12" fill="#2d3748">Detected false</text>
<rect x="180" y="120" width="450" height="18" rx="3" fill="#c53030"/>
<text x="640" y="134" font-family="Arial, sans-serif" font-size="12" fill="#2d3748">15</text>
<text x="44" y="163" font-family="Arial, sans-serif" font-size="12" fill="#2d3748">Not evaluated</text>
<rect x="180" y="148" width="2" height="18" rx="3" fill="#a0aec0"/>
<text x="192" y="162" font-family="Arial, sans-serif" font-size="12" fill="#2d3748">0</text>
<text x="24" y="178" font-family="Arial, sans-serif" font-size="15" font-weight="700" fill="#2d3748">Shorts</text>
<text x="44" y="211" font-family="Arial, sans-serif" font-size="12" fill="#2d3748">Detected true</text>
<rect x="180" y="196" width="240" height="18" rx="3" fill="#2f855a"/>
<text x="430" y="210" font-family="Arial, sans-serif" font-size="12" fill="#2d3748">8</text>
<text x="44" y="239" font-family="Arial, sans-serif" font-size="12" fill="#2d3748">Detected false</text>
<rect x="180" y="224" width="360" height="18" rx="3" fill="#c53030"/>
<text x="550" y="238" font-family="Arial, sans-serif" font-size="12" fill="#2d3748">12</text>
<text x="44" y="267" font-family="Arial, sans-serif" font-size="12" fill="#2d3748">Not evaluated</text>
<rect x="180" y="252" width="2" height="18" rx="3" fill="#a0aec0"/>
<text x="192" y="266" font-family="Arial, sans-serif" font-size="12" fill="#2d3748">0</text>
</svg>