<svg xmlns="http://www.w3.org/2000/svg" width="760" height="674" viewBox="0 0 760 674">
<rect width="100%" height="100%" fill="#ffffff"/>
<text x="24" y="34" font-family="Arial, sans-serif" font-size="20" font-weight="700" fill="#1a202c">Shorts Detected Matrix</text>
<text x="24" y="56" font-family="Arial, sans-serif" font-size="13" fill="#4a5568">Green=true, red=false, gray=not evaluated</text>
<text x="330" y="72" font-family="Arial, sans-serif" font-size="11" fill="#2d3748" transform="rotate(-35 330 72)">video 1</text>
<rect x="0" y="60" width="760" height="28" fill="#f7fafc"/>
<text x="24" y="78" font-family="Arial, sans-serif" font-size="12" fill="#2d3748">tight_framing_index</text>
<rect x="330" y="64" width="14" height="14" rx="2" fill="#2f855a"/>
<rect x="0" y="88" width="760" height="28" fill="#ffffff"/>
<text x="24" y="106" font-family="Arial, sans-serif" font-size="12" fill="#2d3748">shorts_human_voice</text>
<rect x="330" y="92" width="14" height="14" rx="2" fill="#2f855a"/>
<rect x="0" y="116" width="760" height="28" fill="#f7fafc"/>
<text x="24" y="134" font-family="Arial, sans-serif" font-size="12" fill="#2d3748">shorts_direct_to_camera</text>
<rect x="330" y="120" width="14" height="14" rx="2" fill="#c53030"/>
<rect x="0" y="144" width="760" height="28" fill="#ffffff"/>
<text x="24" y="162" font-family="Arial, sans-serif" font-size="12" fill="#2d3748">shorts_has_supers</text>
<rect x="330" y="148" width="14" height="14" rx="2" fill="#2f855a"/>
<rect x="0" y="172" width="760" height="28" fill="#f7fafc"/>
<text x="24" y="190" font-family="Arial, sans-serif" font-size="12" fill="#2d3748">shorts_product_closeup</text>
<rect x="330" y="176" width="14" height="14" rx="2" fill="#c53030"/>
<rect x="0" y="200" width="760" height="28" fill="#ffffff"/>
<text x="24" y="218" font-family="Arial, sans-serif" font-size="12" fill="#2d3748">shorts_product_extreme_closeup</text>
<rect x="330" y="204" width="14" height="14" rx="2" fill="#c53030"/>
<rect x="0" y="228" width="760" height="28" fill="#f7fafc"/>
<text x="24" y="246" font-family="Arial, sans-serif" font-size="12" fill="#2d3748">shorts_product_context_index</text>
<rect x="330" y="232" width="14" height="14" rx="2" fill="#c53030"/>
<rect x="0" y="256" width="760" height="28" fill="#ffffff"/>
<text x="24" y="274" font-family="Arial, sans-serif" font-size="12" fill="#2d3748">shorts_casual_language</text>
<rect x="330" y="260" width="14" height="14" rx="2" fill="#2f855a"/>
<rect x="0" y="284" width="760" height="28" fill="#f7fafc"/>
<text x="24" y="302" font-family="Arial, sans-serif" font-size="12" fill="#2d3748">shorts_humor_index</text>
<rect x="330" y="288" width="14" height="14" rx="2" fill="#c53030"/>
<rect x="0" y="312" width="760" height="28" fill="#ffffff"/>
<text x="24" y="330" font-family="Arial, sans-serif" font-size="12" fill="#2d3748">character_driven</text>
<rect x="330" y="316" width="14" height="14" rx="2" fill="#2f855a"/>
<rect x="0" y="340" width="760" height="28" fill="#f7fafc"/>
<text x="24" y="358" font-family="Arial, sans-serif" font-size="12" fill="#2d3748">shorts_audio_cta</text>
<rect x="330" y="344" width="14" height="14" rx="2" fill="#c53030"/>
<rect x="0" y="368" width="760" height="28" fill="#ffffff"/>
<text x="24" y="386" font-family="Arial, sans-serif" font-size="12" fill="#2d3748">special_offer_speech</text>
<rect x="330" y="372" width="14" height="14" rx="2" fill="#2f855a"/>
<rect x="0" y="396" width="760" height="28" fill="#f7fafc"/>
<text x="24" y="414" font-family="Arial, sans-serif" font-size="12" fill="#2d3748">shorts_production_style_index</text>
<rect x="330" y="400" width="14" height="14" rx="2" fill="#c53030"/>
<rect x="0" y="424" width="760" height="28" fill="#ffffff"/>
<text x="24" y="442" font-family="Arial, sans-serif" font-size="12" fill="#2d3748">shorts_sfv_adaptation_high</text>
<rect x="330" y="428" width="14" height="14" rx="2" fill="#c53030"/>
<rect x="0" y="452" width="760" height="28" fill="#f7fafc"/>
<text x="24" y="470" font-family="Arial, sans-serif" font-size="12" fill="#2d3748">shorts_emoji_usage</text>
<rect x="330" y="456" width="14" height="14" rx="2" fill="#c53030"/>
<rect x="0" y="480" width="760" height="28" fill="#ffffff"/>
<text x="24" y="498" font-family="Arial, sans-serif" font-size="12" fill="#2d3748">shorts_personal_character_talk</text>
<rect x="330" y="484" width="14" height="14" rx="2" fill="#c53030"/>
<rect x="0" y="508" width="760" height="28" fill="#f7fafc"/>
<text x="24" y="526" font-family="Arial, sans-serif" font-size="12" fill="#2d3748">shorts_native_brand_context</text>
<rect x="330" y="512" width="14" height="14" rx="2" fill="#2f855a"/>
<rect x="0" y="536" width="760" height="28" fill="#ffffff"/>
<text x="24" y="554" font-family="Arial, sans-serif" font-size="12" fill="#2d3748">shorts_personal_character_type</text>
<rect x="330" y="540" width="14" height="14" rx="2" fill="#c53030"/>
<rect x="0" y="564" width="760" height="28" fill="#f7fafc"/>
<text x="24" y="582" font-family="Arial, sans-serif" font-size="12" fill="#2d3748">shorts_product_context</text>
<rect x="330" y="568" width="14" height="14" rx="2" fill="#c53030"/>
<rect x="0" y="592" width="760" height="28" fill="#ffffff"/>
<text x="24" y="610" font-family="Arial, sans-serif" font-size="12" fill="#2d3748">shorts_video_format</text>
<rect x="330" y="596" width="14" height="14" rx="2" fill="#2f855a"/>
</svg>